<?xml version="1.0" standalone="yes"?>
<svg xmlns="http://www.w3.org/2000/svg" width="1799" height="309">
<path style="fill:#ffffff; stroke:none;" d="M0 0L0 309L1799 309L1799 0L0 0z"/>
<path style="fill:#b9afad; stroke:none;" d="M983 19L989 15L983 19z"/>
<path style="fill:#ef4d2d; stroke:none;" d="M987 15C960.877 41.1231 932.645 66.231 908.286 94C891.29 113.376 880.01 137.907 880 164C879.991 186.328 883.813 206.622 895.615 226C938.862 297.008 1048.85 292.367 1086.03 218C1101.04 187.976 1100.92 152.439 1087.41 122C1083.53 113.249 1076.45 98.6594 1067.91 93.662C1062.36 90.4165 1046.41 106.371 1048.33 112C1051.13 120.252 1059.93 127.657 1063.69 136C1073.53 157.828 1072.39 183.735 1061.73 205C1031.16 265.993 942.986 264.205 913.785 203C909.261 193.518 906.499 182.502 906.039 172C904.261 131.376 934.753 106.247 961 80C968.906 72.0945 981.953 63.0384 986.972 53C990.512 45.9205 990.024 22.2065 987 15z"/>
<path style="fill:#f48873; stroke:none;" d="M988 15L988 52L989 52C989 41.3513 992.111 24.7977 988 15z"/>
<path style="fill:#b9afad; stroke:none;" d="M566 52L566 53L571 53L566 52z"/>
<path style="fill:#636363; stroke:none;" d="M571 52.4244C543.502 56.0455 519.836 65.3436 501.3 87C467.626 126.343 467.301 196.665 497.489 238C518.803 267.184 556.322 281.982 592 277.715C614.332 275.044 636.577 266.823 652.996 250.961C713.63 192.382 687.211 67.9023 600 53.7539C590.562 52.2227 580.529 51.1695 571 52.4244z"/>
<path style="fill:#b9afad; stroke:none;" d="M589 52L589 53L595 53L589 52M559 53L559 54L562 54L559 53M598 53L598 54L601 54L598 53z"/>
<path style="fill:#f48873; stroke:none;" d="M987 53L988 54L987 53z"/>
<path style="fill:#b9afad; stroke:none;" d="M554 54L554 55L557 55L554 54M604.667 54.3333L605.333 54.6667L604.667 54.3333z"/>
<path style="fill:#f48873; stroke:none;" d="M986 54L987 55L986 54z"/>
<path style="fill:#b9afad; stroke:none;" d="M454 55L455 56L454 55M550.667 55.3333L551.333 55.6667L550.667 55.3333M609 55L610 56L609 55z"/>
<path style="fill:#f48873; stroke:none;" d="M985 55L986 56L985 55z"/>
<path style="fill:#b9afad; stroke:none;" d="M258 56L259 57L258 56z"/>
<path style="fill:#636363; stroke:none;" d="M259 56L279.667 88L323 153L342.298 183L343 212L343 274L371 274L371 210L371.854 182L394.28 149L435.025 90L458 56C449.45 56 432.675 52.7658 425.184 57.0278C417.354 61.4834 411.285 76.5727 406.333 84C390.387 107.92 370.409 132.524 359 159C342.963 134.687 328.519 109.279 312.333 85C307.148 77.2226 301.05 61.7131 292.816 57.0278C285.132 52.6558 267.777 56 259 56z"/>
<path style="fill:#b9afad; stroke:none;" d="M293 56L294 57L293 56M424 56L425 57L424 56M547.667 56.3333L548.333 56.6667L547.667 56.3333M612.667 56.3333L613.333 56.6667L612.667 56.3333M721 56L721 275L858 275L858 274L722 274L722 121L722 77L721 56z"/>
<path style="fill:#636363; stroke:none;" d="M722 56L722 274L858 274L858 249L750 249L750 56L722 56z"/>
<path style="fill:#b9afad; stroke:none;" d="M750 56L750 249L751 249L751 113L751 74L750 56z"/>
<path style="fill:#f48873; stroke:none;" d="M984 56L985 57L984 56z"/>
<path style="fill:#b9afad; stroke:none;" d="M294 57L295 58L294 57M457 57L458 58L457 57M544 57L545 58L544 57M615.667 57.3333L616.333 57.6667L615.667 57.3333z"/>
<path style="fill:#f48873; stroke:none;" d="M983 57L984 58L983 57z"/>
<path style="fill:#b9afad; stroke:none;" d="M1025 57L1026 58L1025 57z"/>
<path style="fill:#f48873; stroke:none;" d="M1026.67 57.3333L1027.33 57.6667L1026.67 57.3333z"/>
<path style="fill:#b9afad; stroke:none;" d="M1028.67 57.3333L1029.33 57.6667L1028.67 57.3333M541 58L542 59L541 58M618 58L619 59L618 58z"/>
<path style="fill:#f48873; stroke:none;" d="M982 58L983 59L982 58z"/>
<path style="fill:#b9afad; stroke:none;" d="M1021 58L1022 59L1021 58z"/>
<path style="fill:#f48873; stroke:none;" d="M1022 58L1023 59L1022 58z"/>
<path style="fill:#ef4d2d; stroke:none;" d="M1023 58.5725C1005.84 63.4745 1014.03 90.3184 1031 85.1921C1048.26 79.9769 1040.53 53.5652 1023 58.5725z"/>
<path style="fill:#f48873; stroke:none;" d="M1031 58L1032 59L1031 58z"/>
<path style="fill:#b9afad; stroke:none;" d="M1032 58L1033 59L1032 58M260 59L261 60L260 59M295 59L296 60L295 59M422 59L423 60L422 59M539 59L540 60L539 59M621 59L622 60L621 59z"/>
<path style="fill:#f48873; stroke:none;" d="M981 59L982 60L981 59M1034 59L1035 60L1034 59z"/>
<path style="fill:#b9afad; stroke:none;" d="M296 60L297 61L296 60M455 60L456 61L455 60M536 60L537 61L536 60M623 60L624 61L623 60z"/>
<path style="fill:#f48873; stroke:none;" d="M980 60L981 61L980 60M1018 60L1019 61L1018 60z"/>
<path style="fill:#b9afad; stroke:none;" d="M454 61L455 62L454 61M534 61L535 62L534 61M625.667 61.3333L626.333 61.6667L625.667 61.3333z"/>
<path style="fill:#f48873; stroke:none;" d="M979 61L980 62L979 61M1017 61L1018 62L1017 61z"/>
<path style="fill:#b9afad; stroke:none;" d="M262 62L263 63L262 62M297 62L298 63L297 62M420 62L421 63L420 62M532 62L533 63L532 62M628 62L629 63L628 62z"/>
<path style="fill:#f48873; stroke:none;" d="M978 62L979 63L978 62M1016 62L1017 63L1016 62z"/>
<path style="fill:#b9afad; stroke:none;" d="M453 63L454 64L453 63M530 63L531 64L530 63M630 63L631 64L630 63z"/>
<path style="fill:#f48873; stroke:none;" d="M977 63L978 64L977 63M1015 63L1016 64L1015 63M1038 63L1039 64L1038 63z"/>
<path style="fill:#b9afad; stroke:none;" d="M452 64L453 65L452 64M528 64L529 65L528 64z"/>
<path style="fill:#f48873; stroke:none;" d="M976 64L977 65L976 64z"/>
<path style="fill:#b9afad; stroke:none;" d="M1039 64L1040 65L1039 64M264 65L265 66L264 65M299 65L300 66L299 65M418 65L419 66L418 65M526 65L527 66L526 65M633 65L634 66L633 65z"/>
<path style="fill:#f48873; stroke:none;" d="M975 65L976 66L975 65M1014 65L1015 66L1014 65z"/>
<path style="fill:#b9afad; stroke:none;" d="M525 66L526 67L525 66M635 66L636 67L635 66z"/>
<path style="fill:#f48873; stroke:none;" d="M974 66L975 67L974 66M1040.33 66.6667L1040.67 67.3333L1040.33 66.6667z"/>
<path style="fill:#b9afad; stroke:none;" d="M450 67L451 68L450 67M523 67L524 68L523 67M637 67L638 68L637 67z"/>
<path style="fill:#f48873; stroke:none;" d="M973 67L974 68L973 67z"/>
<path style="fill:#b9afad; stroke:none;" d="M1013 67L1014 68L1013 67M266 68L267 69L266 68M301 68L302 69L301 68M416 68L417 69L416 68M638 68L639 69L638 68z"/>
<path style="fill:#f48873; stroke:none;" d="M972 68L973 69L972 68M1013 68L1014 69L1013 68z"/>
<path style="fill:#b9afad; stroke:none;" d="M520 69L521 70L520 69M640 69L641 70L640 69z"/>
<path style="fill:#f48873; stroke:none;" d="M971 69L972 70L971 69z"/>
<path style="fill:#b9afad; stroke:none;" d="M415 70L416 71L415 70M448 70L449 71L448 70M519 70L520 71L519 70M641 70L642 71L641 70z"/>
<path style="fill:#f48873; stroke:none;" d="M970 70L971 71L970 70z"/>
<path style="fill:#b9afad; stroke:none;" d="M1041 70L1041 73L1042 73L1041 70M268 71L269 72L268 71M303 71L304 72L303 71M414 71L415 72L414 71M517 71L518 72L517 71z"/>
<path style="fill:#f48873; stroke:none;" d="M969 71L970 72L969 71z"/>
<path style="fill:#b9afad; stroke:none;" d="M1314 71L1314 85L1315 85L1314 71z"/>
<path style="fill:#636363; stroke:none;" d="M1315 71L1313.01 139L1312 178C1336.07 174.394 1356.5 161.531 1381 173.81C1410.37 188.529 1414.18 235.884 1383 251.623C1369.05 258.667 1349.82 257.685 1338 246.895C1334.11 243.336 1329.55 232.179 1324.79 230.788C1318.13 228.845 1305.71 236.447 1299 238C1302.16 268.8 1342.69 282.862 1369 279.715C1422.02 273.373 1450.89 214.17 1419.78 169C1411.77 157.377 1398.74 149.178 1385 146.211C1371 143.189 1354.34 143.261 1341 149L1341 97L1425 97L1425 71L1315 71z"/>
<path style="fill:#b9afad; stroke:none;" d="M516 72L517 73L516 72M644 72L645 73L644 72z"/>
<path style="fill:#f48873; stroke:none;" d="M968 72L969 73L968 72z"/>
<path style="fill:#b9afad; stroke:none;" d="M413 73L414 74L413 73M446 73L447 74L446 73M515 73L516 74L515 73M645 73L646 74L645 73z"/>
<path style="fill:#f48873; stroke:none;" d="M967 73L968 74L967 73z"/>
<path style="fill:#b9afad; stroke:none;" d="M270 74L271 75L270 74M305 74L306 75L305 74M412 74L413 75L412 74M445 74L446 75L445 74z"/>
<path style="fill:#f48873; stroke:none;" d="M966 74L967 75L966 74z"/>
<path style="fill:#b9afad; stroke:none;" d="M271 75L272 76L271 75z"/>
<path style="fill:#f48873; stroke:none;" d="M965 75L966 76L965 75M1013 75L1014 76L1013 75z"/>
<path style="fill:#b9afad; stroke:none;" d="M306 76L307 77L306 76M411 76L412 77L411 76M444 76L445 77L444 76M511 76L512 77L511 76M649 76L650 77L649 76z"/>
<path style="fill:#f48873; stroke:none;" d="M964 76L965 77L964 76M1040 76L1041 77L1040 76z"/>
<path style="fill:#b9afad; stroke:none;" d="M272 77L273 78L272 77M307 77L308 78L307 77M410 77L411 78L410 77M443 77L444 78L443 77M510 77L511 78L510 77M568 77L568 78L572 78L568 77z"/>
<path style="fill:#ffffff; stroke:none;" d="M572 77.4252C552.307 80.1058 533.911 88.6656 521.761 105C511.751 118.457 508.46 134.703 506.831 151C502.595 193.365 515.942 241.045 563 251.575C572.075 253.606 582.758 253.912 592 252.711C687.131 240.348 671.932 63.8221 572 77.4252z"/>
<path style="fill:#b9afad; stroke:none;" d="M590 77L590 78L593 78L590 77M650 77L651 78L650 77z"/>
<path style="fill:#f48873; stroke:none;" d="M963 77L964 78L963 77z"/>
<path style="fill:#b9afad; stroke:none;" d="M273 78L274 79L273 78M509 78L510 79L509 78M563.667 78.3333L564.333 78.6667L563.667 78.3333M596.667 78.3333L597.333 78.6667L596.667 78.3333M651 78L652 79L651 78z"/>
<path style="fill:#f48873; stroke:none;" d="M962 78L963 79L962 78M1014 78L1015 79L1014 78M1039 78L1040 79L1039 78z"/>
<path style="fill:#b9afad; stroke:none;" d="M308 79L309 80L308 79M409 79L410 80L409 79M508 79L509 80L508 79M559.667 79.3333L560.333 79.6667L559.667 79.3333M600.667 79.3333L601.333 79.6667L600.667 79.3333M652 79L653 80L652 79z"/>
<path style="fill:#f48873; stroke:none;" d="M961 79L962 80L961 79M1015 79L1016 80L1015 79z"/>
<path style="fill:#b9afad; stroke:none;" d="M274 80L275 81L274 80M309 80L310 81L309 80M408 80L409 81L408 80M441 80L442 81L441 80M507 80L508 81L507 80M556 80L557 81L556 80M604 80L605 81L604 80M653 80L654 81L653 80z"/>
<path style="fill:#f48873; stroke:none;" d="M960 80L961 81L960 80M1038 80L1039 81L1038 80z"/>
<path style="fill:#b9afad; stroke:none;" d="M275 81L276 82L275 81M506 81L507 82L506 81M553 81L554 82L553 81M607 81L608 82L607 81M654 81L655 82L654 81z"/>
<path style="fill:#f48873; stroke:none;" d="M959 81L960 82L959 81z"/>
<path style="fill:#b9afad; stroke:none;" d="M1016 81L1017 82L1016 81z"/>
<path style="fill:#f48873; stroke:none;" d="M1037 81L1038 82L1037 81z"/>
<path style="fill:#b9afad; stroke:none;" d="M310 82L311 83L310 82M407 82L408 83L407 82M505 82L506 83L505 82M550.667 82.3333L551.333 82.6667L550.667 82.3333M609 82L610 83L609 82M655 82L656 83L655 82z"/>
<path style="fill:#f48873; stroke:none;" d="M958 82L959 83L958 82z"/>
<path style="fill:#b9afad; stroke:none;" d="M1017 82L1018 83L1017 82z"/>
<path style="fill:#f48873; stroke:none;" d="M1036 82L1037 83L1036 82z"/>
<path style="fill:#b9afad; stroke:none;" d="M276 83L277 84L276 83M311 83L312 84L311 83M406 83L407 84L406 83M439 83L440 84L439 83M504 83L505 84L504 83M548 83L549 84L548 83M611 83L612 84L611 83M656 83L657 84L656 83z"/>
<path style="fill:#f48873; stroke:none;" d="M957 83L958 84L957 83z"/>
<path style="fill:#b9afad; stroke:none;" d="M1035 83L1036 84L1035 83M277 84L278 85L277 84M503 84L504 85L503 84M546 84L547 85L546 84M613 84L614 85L613 84M657 84L658 85L657 84z"/>
<path style="fill:#f48873; stroke:none;" d="M956 84L957 85L956 84z"/>
<path style="fill:#b9afad; stroke:none;" d="M1020 84L1021 85L1020 84z"/>
<path style="fill:#f48873; stroke:none;" d="M1033 84L1034 85L1033 84z"/>
<path style="fill:#b9afad; stroke:none;" d="M312 85L313 86L312 85M405 85L406 86L405 85M502 85L503 86L502 85M544 85L545 86L544 85M615 85L616 86L615 85M658 85L659 86L658 85z"/>
<path style="fill:#f48873; stroke:none;" d="M955 85L956 86L955 85M1023.67 85.3333L1024.33 85.6667L1023.67 85.3333M1030 85L1031 86L1030 85z"/>
<path style="fill:#b9afad; stroke:none;" d="M1031 85L1032 86L1031 85M278 86L279 87L278 86M313 86L314 87L313 86M404 86L405 87L404 86M437 86L438 87L437 86M617 86L618 87L617 86z"/>
<path style="fill:#f48873; stroke:none;" d="M954 86L955 87L954 86z"/>
<path style="fill:#b9afad; stroke:none;" d="M1314.33 86.6667L1314.67 87.3333L1314.33 86.6667M279 87L280 88L279 87M436 87L437 88L436 87M541 87L542 88L541 87M619 87L620 88L619 87z"/>
<path style="fill:#f48873; stroke:none;" d="M953 87L954 88L953 87z"/>
<path style="fill:#b9afad; stroke:none;" d="M314 88L315 89L314 88M403 88L404 89L403 88M539 88L540 89L539 88M620 88L621 89L620 88z"/>
<path style="fill:#f48873; stroke:none;" d="M952 88L953 89L952 88z"/>
<path style="fill:#b9afad; stroke:none;" d="M280 89L281 90L280 89M402 89L403 90L402 89M435 89L436 90L435 89M499 89L500 90L499 89M538 89L539 90L538 89M622 89L623 90L622 89M661 89L662 90L661 89z"/>
<path style="fill:#f48873; stroke:none;" d="M951 89L952 90L951 89z"/>
<path style="fill:#b9afad; stroke:none;" d="M281 90L282 91L281 90M434 90L435 91L434 90M498 90L499 91L498 90M623 90L624 91L623 90M662 90L663 91L662 90z"/>
<path style="fill:#f48873; stroke:none;" d="M950 90L951 91L950 90z"/>
<path style="fill:#b9afad; stroke:none;" d="M316 91L317 92L316 91M401 91L402 92L401 91M535 91L536 92L535 91z"/>
<path style="fill:#f48873; stroke:none;" d="M949 91L950 92L949 91M1065 91L1066 92L1065 91z"/>
<path style="fill:#b9afad; stroke:none;" d="M282 92L283 93L282 92M534 92L535 93L534 92M626 92L627 93L626 92z"/>
<path style="fill:#f48873; stroke:none;" d="M948 92L949 93L948 92z"/>
<path style="fill:#b9afad; stroke:none;" d="M283 93L284 94L283 93M432 93L433 94L432 93M496 93L497 94L496 93M627 93L628 94L627 93M664 93L665 94L664 93z"/>
<path style="fill:#f48873; stroke:none;" d="M947 93L948 94L947 93z"/>
<path style="fill:#b9afad; stroke:none;" d="M318 94L319 95L318 94M399 94L400 95L399 94M495 94L496 95L495 94M531 94L532 95L531 94M628 94L629 95L628 94z"/>
<path style="fill:#f48873; stroke:none;" d="M946 94L947 95L946 94z"/>
<path style="fill:#b9afad; stroke:none;" d="M284 95L285 96L284 95M530 95L531 96L530 95z"/>
<path style="fill:#f48873; stroke:none;" d="M945 95L946 96L945 95z"/>
<path style="fill:#b9afad; stroke:none;" d="M285 96L286 97L285 96M430 96L431 97L430 96M494 96L495 97L494 96M529 96L530 97L529 96M666 96L667 97L666 96z"/>
<path style="fill:#f48873; stroke:none;" d="M906 96L907 97L906 96M944 96L945 97L944 96z"/>
<path style="fill:#b9afad; stroke:none;" d="M320 97L321 98L320 97M397 97L398 98L397 97M493 97L494 98L493 97M528 97L529 98L528 97z"/>
<path style="fill:#f48873; stroke:none;" d="M905 97L906 98L905 97M943 97L944 98L943 97M1071 97L1072 98L1071 97z"/>
<path style="fill:#b9afad; stroke:none;" d="M1341 97L1341 115L1342 115L1341 97M286 98L287 99L286 98M527 98L528 99L527 98M667 98L668 99L667 98z"/>
<path style="fill:#f48873; stroke:none;" d="M904 98L905 99L904 98M942 98L943 99L942 98M1072 98L1073 99L1072 98z"/>
<path style="fill:#b9afad; stroke:none;" d="M287 99L288 100L287 99M428 99L429 100L428 99M492 99L493 100L492 99M526 99L527 100L526 99M668 99L669 100L668 99M903 99L904 100L903 99z"/>
<path style="fill:#f48873; stroke:none;" d="M941 99L942 100L941 99z"/>
<path style="fill:#b9afad; stroke:none;" d="M1073 99L1074 100L1073 99M322 100L323 101L322 100M395 100L396 101L395 100M427 100L428 101L427 100M525 100L526 101L525 100M634 100L635 101L634 100z"/>
<path style="fill:#f48873; stroke:none;" d="M940 100L941 101L940 100z"/>
<path style="fill:#b9afad; stroke:none;" d="M288 101L289 102L288 101M524 101L525 102L524 101M635 101L636 102L635 101M669 101L670 102L669 101z"/>
<path style="fill:#f48873; stroke:none;" d="M939 101L940 102L939 101z"/>
<path style="fill:#b9afad; stroke:none;" d="M289 102L290 103L289 102M323 102L324 103L323 102M426 102L427 103L426 102M490 102L491 103L490 102M523 102L524 103L523 102M636 102L637 103L636 102z"/>
<path style="fill:#f48873; stroke:none;" d="M901 102L902 103L901 102M938 102L939 103L938 102M1075 102L1076 103L1075 102z"/>
<path style="fill:#b9afad; stroke:none;" d="M324 103L325 104L324 103M393 103L394 104L393 103M425 103L426 104L425 103M670 103L671 104L670 103M900 103L901 104L900 103z"/>
<path style="fill:#f48873; stroke:none;" d="M937 103L938 104L937 103M1076 103L1077 104L1076 103z"/>
<path style="fill:#b9afad; stroke:none;" d="M290 104L291 105L290 104M489 104L490 105L489 104z"/>
<path style="fill:#f48873; stroke:none;" d="M936 104L937 105L936 104z"/>
<path style="fill:#b9afad; stroke:none;" d="M291 105L292 106L291 105M325 105L326 106L325 105M521 105L522 106L521 105M638 105L639 106L638 105M671 105L672 106L671 105z"/>
<path style="fill:#f48873; stroke:none;" d="M935 105L936 106L935 105z"/>
<path style="fill:#b9afad; stroke:none;" d="M326 106L327 107L326 106M391 106L392 107L391 106M423 106L424 107L423 106M488 106L489 107L488 106M520 106L521 107L520 106M639 106L640 107L639 106z"/>
<path style="fill:#f48873; stroke:none;" d="M898 106L899 107L898 106M934 106L935 107L934 106M1078 106L1079 107L1078 106z"/>
<path style="fill:#b9afad; stroke:none;" d="M292 107L293 108L292 107M672 107L673 108L672 107z"/>
<path style="fill:#f48873; stroke:none;" d="M933 107L934 108L933 107z"/>
<path style="fill:#b9afad; stroke:none;" d="M1079 107L1080 108L1079 107M293 108L294 109L293 108M327 108L328 109L327 108M487 108L488 109L487 108M519 108L520 109L519 108M640 108L641 109L640 108z"/>
<path style="fill:#f48873; stroke:none;" d="M932 108L933 109L932 108z"/>
<path style="fill:#b9afad; stroke:none;" d="M328 109L329 110L328 109M389 109L390 110L389 109M421 109L422 110L421 109M518 109L519 110L518 109M641 109L642 110L641 109M673 109L674 110L673 109z"/>
<path style="fill:#f48873; stroke:none;" d="M896 109L897 110L896 109M931 109L932 110L931 109M1080 109L1081 110L1080 109z"/>
<path style="fill:#b9afad; stroke:none;" d="M294 110L295 111L294 110M486 110L487 111L486 110z"/>
<path style="fill:#f48873; stroke:none;" d="M930 110L931 111L930 110z"/>
<path style="fill:#b9afad; stroke:none;" d="M1046 110L1047 111L1046 110M295 111L296 112L295 111M329 111L330 112L329 111M517 111L518 112L517 111M642 111L643 112L642 111M674 111L675 112L674 111z"/>
<path style="fill:#f48873; stroke:none;" d="M929 111L930 112L929 111M1047 111L1048 112L1047 111z"/>
<path style="fill:#b9afad; stroke:none;" d="M1313 111L1313 134L1314 134L1313 111M330 112L331 113L330 112M387 112L388 113L387 112M419 112L420 113L419 112M894 112L895 113L894 112z"/>
<path style="fill:#f48873; stroke:none;" d="M928 112L929 113L928 112M1082 112L1083 113L1082 112z"/>
<path style="fill:#b9afad; stroke:none;" d="M296 113L297 114L296 113M418 113L419 114L418 113M485 113L486 114L485 113M516 113L517 114L516 113M643 113L644 114L643 113M675.333 113.667L675.667 114.333L675.333 113.667z"/>
<path style="fill:#f48873; stroke:none;" d="M927 113L928 114L927 113z"/>
<path style="fill:#b9afad; stroke:none;" d="M297 114L298 115L297 114M331 114L332 115L331 114M386 114L387 115L386 114M644 114L645 115L644 114z"/>
<path style="fill:#f48873; stroke:none;" d="M893 114L894 115L893 114M926 114L927 115L926 114M1083 114L1084 115L1083 114z"/>
<path style="fill:#b9afad; stroke:none;" d="M385 115L386 116L385 115M417 115L418 116L417 115M484.333 115.667L484.667 116.333L484.333 115.667M515 115L516 116L515 115M298 116L299 117L298 116M416 116L417 117L416 116M645.333 116.667L645.667 117.333L645.333 116.667M676 116L677 117L676 116z"/>
<path style="fill:#f48873; stroke:none;" d="M892 116L893 117L892 116z"/>
<path style="fill:#b9afad; stroke:none;" d="M1051 116L1052 117L1051 116z"/>
<path style="fill:#f48873; stroke:none;" d="M1084 116L1085 117L1084 116z"/>
<path style="fill:#b9afad; stroke:none;" d="M299 117L300 118L299 117M333 117L334 118L333 117M384 117L385 118L384 117M514 117L515 118L514 117z"/>
<path style="fill:#f48873; stroke:none;" d="M1052 117L1053 118L1052 117z"/>
<path style="fill:#b9afad; stroke:none;" d="M334 118L335 119L334 118M383 118L384 119L383 118M483 118L484 119L483 118M677.333 118.667L677.667 119.333L677.333 118.667z"/>
<path style="fill:#f48873; stroke:none;" d="M923 118L924 119L923 118M1053 118L1054 119L1053 118z"/>
<path style="fill:#b9afad; stroke:none;" d="M300 119L301 120L300 119M414 119L415 120L414 119M513 119L514 120L513 119M646 119L647 120L646 119M890 119L891 120L890 119z"/>
<path style="fill:#f48873; stroke:none;" d="M922 119L923 120L922 119z"/>
<path style="fill:#b9afad; stroke:none;" d="M1086 119L1087 120L1086 119M301 120L302 121L301 120M335 120L336 121L335 120M382 120L383 121L382 120z"/>
<path style="fill:#f48873; stroke:none;" d="M890 120L891 121L890 120z"/>
<path style="fill:#b9afad; stroke:none;" d="M1054 120L1055 121L1054 120M381 121L382 122L381 121M482 121L483 122L482 121M647.333 121.667L647.667 122.333L647.333 121.667M678.333 121.667L678.667 122.333L678.333 121.667z"/>
<path style="fill:#f48873; stroke:none;" d="M1055 121L1056 122L1055 121z"/>
<path style="fill:#b9afad; stroke:none;" d="M302 122L303 123L302 122M412 122L413 123L412 122M512 122L513 123L512 122z"/>
<path style="fill:#f48873; stroke:none;" d="M889 122L890 123L889 122M920 122L921 123L920 122M1087 122L1088 123L1087 122z"/>
<path style="fill:#b9afad; stroke:none;" d="M303 123L304 124L303 123M337 123L338 124L337 123M380 123L381 124L380 123M648.333 123.667L648.667 124.333L648.333 123.667M379 124L380 125L379 124M481.333 124.667L481.667 125.333L481.333 124.667M679.333 124.667L679.667 125.333L679.333 124.667z"/>
<path style="fill:#f48873; stroke:none;" d="M888 124L889 125L888 124M1057 124L1058 125L1057 124M1088 124L1089 125L1088 124z"/>
<path style="fill:#b9afad; stroke:none;" d="M304 125L305 126L304 125M338 125L339 126L338 125M410 125L411 126L410 125M511 125L512 126L511 125z"/>
<path style="fill:#f48873; stroke:none;" d="M918 125L919 126L918 125z"/>
<path style="fill:#b9afad; stroke:none;" d="M305 126L306 127L305 126M339 126L340 127L339 126M378 126L379 127L378 126M409 126L410 127L409 126M649 126L650 127L649 126M887 126L888 127L887 126z"/>
<path style="fill:#f48873; stroke:none;" d="M1089 126L1090 127L1089 126z"/>
<path style="fill:#b9afad; stroke:none;" d="M917 127L918 128L917 127z"/>
<path style="fill:#f48873; stroke:none;" d="M1059 127L1060 128L1059 127z"/>
<path style="fill:#b9afad; stroke:none;" d="M306 128L307 129L306 128M340 128L341 129L340 128M408 128L409 129L408 128M480.333 128.667L480.667 129.333L480.333 128.667M510 128L511 129L510 128M680 128L681 129L680 128M1090 128L1091 129L1090 128M307 129L308 130L307 129M376 129L377 130L376 129M407 129L408 130L407 129M650.333 129.667L650.667 130.333L650.333 129.667z"/>
<path style="fill:#f48873; stroke:none;" d="M886 129L887 130L886 129M1060 129L1061 130L1060 129M1090 129L1091 130L1090 129M915 130L916 131L915 130z"/>
<path style="fill:#b9afad; stroke:none;" d="M308 131L309 132L308 131M342 131L343 132L342 131M509.333 131.667L509.667 132.333L509.333 131.667M681.333 131.667L681.667 132.333L681.333 131.667M885 131L886 132L885 131z"/>
<path style="fill:#f48873; stroke:none;" d="M1061 131L1062 132L1061 131M1091.33 131.667L1091.67 132.333L1091.33 131.667z"/>
<path style="fill:#b9afad; stroke:none;" d="M309 132L310 133L309 132M374 132L375 133L374 132M405 132L406 133L405 132M479.333 132.667L479.667 133.333L479.333 132.667M651.333 132.667L651.667 133.333L651.333 132.667z"/>
<path style="fill:#f48873; stroke:none;" d="M885 132L886 133L885 132M914 132L915 133L914 132z"/>
<path style="fill:#b9afad; stroke:none;" d="M343 133L344 134L343 133z"/>
<path style="fill:#f48873; stroke:none;" d="M1062 133L1063 134L1062 133z"/>
<path style="fill:#b9afad; stroke:none;" d="M310 134L311 135L310 134M344 134L345 135L344 134M373 134L374 135L373 134M884 134L885 135L884 134z"/>
<path style="fill:#f48873; stroke:none;" d="M913 134L914 135L913 134M1092.33 134.667L1092.67 135.333L1092.33 134.667z"/>
<path style="fill:#b9afad; stroke:none;" d="M311 135L312 136L311 135M372 135L373 136L372 135M403 135L404 136L403 135z"/>
<path style="fill:#f48873; stroke:none;" d="M884 135L885 136L884 135z"/>
<path style="fill:#b9afad; stroke:none;" d="M913 135L914 136L913 135z"/>
<path style="fill:#f48873; stroke:none;" d="M1063 135L1064 136L1063 135z"/>
<path style="fill:#b9afad; stroke:none;" d="M345 136L346 137L345 136M478 136L478 139L479 139L478 136M508.333 136.667L508.667 137.333L508.333 136.667M652 136L652 139L653 139L652 136M682.333 136.667L682.667 137.333L682.333 136.667M312 137L313 138L312 137M371 137L372 138L371 137M883 137L884 138L883 137M912 137L913 138L912 137z"/>
<path style="fill:#f48873; stroke:none;" d="M1064 137L1065 138L1064 137z"/>
<path style="fill:#b9afad; stroke:none;" d="M1093 137L1094 138L1093 137M313 138L314 139L313 138M401 138L402 139L401 138z"/>
<path style="fill:#f48873; stroke:none;" d="M883 138L884 139L883 138z"/>
<path style="fill:#b9afad; stroke:none;" d="M1064 138L1065 139L1064 138z"/>
<path style="fill:#f48873; stroke:none;" d="M1093 138L1094 139L1093 138z"/>
<path style="fill:#b9afad; stroke:none;" d="M347 139L348 140L347 139M400 139L401 140L400 139z"/>
<path style="fill:#f48873; stroke:none;" d="M911 139L912 140L911 139z"/>
<path style="fill:#636363; stroke:none;" d="M1146 139L1202 277L1230.35 274.972L1235.2 265L1245.42 239L1271 174L1284 139C1277.61 139 1262.93 136.249 1257.65 140.028C1251.34 144.541 1247.88 162.752 1245.34 170C1236.94 193.979 1229.55 221.923 1217 244C1207.34 218.968 1196.99 194.16 1187.68 169C1185.07 161.957 1181.49 144.421 1175.35 140.028C1169.6 135.914 1152.99 139 1146 139z"/>
<path style="fill:#b9afad; stroke:none;" d="M1256.33 139.667L1256.67 140.333L1256.33 139.667M1284 139L1285 140L1284 139M314 140L315 141L314 140M369 140L370 141L369 140z"/>
<path style="fill:#f48873; stroke:none;" d="M1065 140L1066 141L1065 140z"/>
<path style="fill:#b9afad; stroke:none;" d="M1146 140L1147 141L1146 140M1176 140L1177 141L1176 140M315 141L316 142L315 141M348 141L349 142L348 141M399 141L400 142L399 141M507 141L507 144L508 144L507 141M653 141L653 144L654 144L653 141M683 141L683 144L684 144L683 141M882 141L883 142L882 141z"/>
<path style="fill:#f48873; stroke:none;" d="M1094.33 141.667L1094.67 142.333L1094.33 141.667z"/>
<path style="fill:#b9afad; stroke:none;" d="M368 142L369 143L368 142M398 142L399 143L398 142M477 142L477 146L478 146L477 142z"/>
<path style="fill:#f48873; stroke:none;" d="M882 142L883 143L882 142M910 142L911 143L910 142z"/>
<path style="fill:#b9afad; stroke:none;" d="M1147 142L1148 143L1147 142M1177 142L1178 143L1177 142M1255 142L1256 143L1255 142M1283 142L1284 143L1283 142M316 143L317 144L316 143M367 143L368 144L367 143z"/>
<path style="fill:#f48873; stroke:none;" d="M1066 143L1067 144L1066 143z"/>
<path style="fill:#b9afad; stroke:none;" d="M317 144L318 145L317 144M350 144L351 145L350 144M1066 144L1067 145L1066 144M1282 144L1283 145L1282 144M1340 144L1340 148L1341 148L1340 144M1358 144L1358 145L1365 145L1358 144M1372 144L1372 145L1378 145L1372 144M366 145L367 146L366 145M396 145L397 146L396 145M881 145L882 146L881 145z"/>
<path style="fill:#f48873; stroke:none;" d="M909 145L910 146L909 145z"/>
<path style="fill:#b9afad; stroke:none;" d="M1095 145L1096 146L1095 145M1148 145L1149 146L1148 145M1178 145L1179 146L1178 145M1254 145L1255 146L1254 145M1351 145L1351 146L1354 146L1351 145M1381 145L1381 146L1384 146L1381 145M318 146L319 147L318 146M351 146L352 147L351 146z"/>
<path style="fill:#f48873; stroke:none;" d="M881.333 146.667L881.667 147.333L881.333 146.667z"/>
<path style="fill:#b9afad; stroke:none;" d="M909 146L910 147L909 146z"/>
<path style="fill:#f48873; stroke:none;" d="M1067.33 146.667L1067.67 147.333L1067.33 146.667M1095 146L1096 147L1095 146z"/>
<path style="fill:#b9afad; stroke:none;" d="M1347.67 146.333L1348.33 146.667L1347.67 146.333M1386.67 146.333L1387.33 146.667L1386.67 146.333M319 147L320 148L319 147M365 147L366 148L365 147M1149 147L1150 148L1149 147M1179.33 147.667L1179.67 148.333L1179.33 147.667M1253.33 147.667L1253.67 148.333L1253.33 147.667M1281 147L1282 148L1281 147M1343.67 147.333L1344.33 147.667L1343.67 147.333M1390 147L1391 148L1390 147M352 148L353 149L352 148M364 148L365 149L364 148M394 148L395 149L394 148M506 148L506 154L507 154L506 148M654 148L654 152L655 152L654 148M684 148L684 154L685 154L684 148z"/>
<path style="fill:#f48873; stroke:none;" d="M908.333 148.667L908.667 149.333L908.333 148.667z"/>
<path style="fill:#b9afad; stroke:none;" d="M1341 148L1342 149L1341 148M1392.67 148.333L1393.33 148.667L1392.67 148.333M320 149L321 150L320 149M353 149L354 150L353 149M1280.33 149.667L1280.67 150.333L1280.33 149.667M1395 149L1396 150L1395 149M321 150L322 151L321 150M363 150L364 151L363 150M476 150L476 157L477 157L476 150M908 150L909 151L908 150z"/>
<path style="fill:#f48873; stroke:none;" d="M1068.33 150.667L1068.67 151.333L1068.33 150.667z"/>
<path style="fill:#b9afad; stroke:none;" d="M1096 150L1097 151L1096 150M1150 150L1151 151L1150 150M1180 150L1181 151L1180 150M1252 150L1253 151L1252 150M1397 150L1398 151L1397 150M354 151L355 152L354 151M392 151L393 152L392 151M880 151L881 152L880 151z"/>
<path style="fill:#f48873; stroke:none;" d="M1096.33 151.667L1096.67 152.333L1096.33 151.667z"/>
<path style="fill:#b9afad; stroke:none;" d="M1399 151L1400 152L1399 151M322 152L323 153L322 152M362 152L363 153L362 152M391 152L392 153L391 152z"/>
<path style="fill:#f48873; stroke:none;" d="M880 152L880 155L881 155L880 152z"/>
<path style="fill:#b9afad; stroke:none;" d="M1068 152L1069 153L1068 152M1151 152L1152 153L1151 152M1181.33 152.667L1181.67 153.333L1181.33 152.667M1279 152L1280 153L1279 152M1401 152L1402 153L1401 152M323 153L324 154L323 153M355 153L356 154L355 153M361 153L362 154L361 153z"/>
<path style="fill:#f48873; stroke:none;" d="M907 153L907 156L908 156L907 153z"/>
<path style="fill:#b9afad; stroke:none;" d="M1251 153L1252 154L1251 153M1403 153L1404 154L1403 153M390 154L391 155L390 154M1278.33 154.667L1278.67 155.333L1278.33 154.667M1404 154L1405 155L1404 154M324 155L325 156L324 155M356 155L357 156L356 155M360 155L361 156L360 155M389 155L390 156L389 155M1152 155L1153 156L1152 155M1182 155L1183 156L1182 155M1250.33 155.667L1250.67 156.333L1250.33 155.667M1406 155L1407 156L1406 155M325 156L326 157L325 156M357 156L358 157L357 156z"/>
<path style="fill:#f48873; stroke:none;" d="M1069.33 156.667L1069.67 157.333L1069.33 156.667z"/>
<path style="fill:#b9afad; stroke:none;" d="M1407 156L1408 157L1407 156M359 157L360 158L359 157M1097.33 157.667L1097.67 158.333L1097.33 157.667M1153 157L1154 158L1153 157M1277 157L1278 158L1277 157M326 158L327 159L326 158M358 158L359 159L358 158M387 158L388 159L387 158M1069.33 158.667L1069.67 159.333L1069.33 158.667M1183 158L1184 159L1183 158M1249 158L1250 159L1249 158M1312 158L1312 177L1313 177L1312 158M327 159L328 160L327 159M655 159L655 172L656 172L655 159M879.333 159.667L879.667 160.333L879.333 159.667z"/>
<path style="fill:#f48873; stroke:none;" d="M906 159L906 164L907 164L906 159M1097 159L1097 165L1098 165L1097 159z"/>
<path style="fill:#b9afad; stroke:none;" d="M1154.33 159.667L1154.67 160.333L1154.33 159.667M1276.33 159.667L1276.67 160.333L1276.33 159.667M1411 159L1412 160L1411 159M1184 160L1185 161L1184 160M1412 160L1413 161L1412 160M385 161L386 162L385 161z"/>
<path style="fill:#f48873; stroke:none;" d="M879 161L879 177L880 177L879 161z"/>
<path style="fill:#b9afad; stroke:none;" d="M1248 161L1249 162L1248 161M1413 161L1414 162L1413 161M329 162L330 163L329 162M505 162L505 172L506 172L505 162M1155 162L1156 163L1155 162M1275 162L1276 163L1275 162M1414 162L1415 163L1414 162M1185 163L1186 164L1185 163M1247.33 163.667L1247.67 164.333L1247.33 163.667M1415 163L1416 164L1415 163M383 164L384 165L383 164M906 164L906 173L907 173L906 164M1156.33 164.667L1156.67 165.333L1156.33 164.667M1416 164L1417 165L1416 164M331 165L332 166L331 165M382 165L383 166L382 165M1186 165L1187 166L1186 165M1274 165L1275 166L1274 165z"/>
<path style="fill:#f48873; stroke:none;" d="M1070 166L1070 172L1071 172L1070 166z"/>
<path style="fill:#b9afad; stroke:none;" d="M1246 166L1247 167L1246 166M381 167L382 168L381 167M1157 167L1158 168L1157 167M1273 167L1274 168L1273 167M1418 167L1419 168L1418 167M333 168L334 169L333 168M380 168L381 169L380 168M1187 168L1188 169L1187 168M1350 168L1350 169L1361 169L1350 168M1419 168L1420 169L1419 168M1158.33 169.667L1158.67 170.333L1158.33 169.667M1245 169L1246 170L1245 169M1343 169L1343 170L1346 170L1343 169M1366.67 169.333L1367.33 169.667L1366.67 169.333M1188.33 170.667L1188.67 171.333L1188.33 170.667M1272 170L1273 171L1272 170M1338.67 170.333L1339.33 170.667L1338.67 170.333M1370 170L1370 171L1373 171L1370 170M335 171L336 172L335 171M378 171L379 172L378 171z"/>
<path style="fill:#f48873; stroke:none;" d="M1097 171L1097 177L1098 177L1097 171z"/>
<path style="fill:#b9afad; stroke:none;" d="M1244.33 171.667L1244.67 172.333L1244.33 171.667M1333.67 171.333L1334.33 171.667L1333.67 171.333M1374.67 171.333L1375.33 171.667L1374.67 171.333M1421 171L1422 172L1421 171M1159 172L1160 173L1159 172M1271 172L1272 173L1271 172M1329.67 172.333L1330.33 172.667L1329.67 172.333M1377.67 172.333L1378.33 172.667L1377.67 172.333z"/>
<path style="fill:#f48873; stroke:none;" d="M906 173L906 177L907 177L906 173z"/>
<path style="fill:#b9afad; stroke:none;" d="M1189 173L1190 174L1189 173M1326 173L1327 174L1326 173M1380 173L1381 174L1380 173M1422 173L1423 174L1422 173M337 174L338 175L337 174M376 174L377 175L376 174M1160 174L1161 175L1160 174M1243.33 174.667L1243.67 175.333L1243.33 174.667M1323 174L1324 175L1323 174M1382 174L1383 175L1382 174M1190.33 175.667L1190.67 176.333L1190.33 175.667M1270 175L1271 176L1270 175M1320.67 175.333L1321.33 175.667L1320.67 175.333M1384 175L1385 176L1384 175M1423 175L1424 176L1423 175M1318 176L1319 177L1318 176M1385 176L1386 177L1385 176M339 177L340 178L339 177M374 177L375 178L374 177M684 177L684 182L685 182L684 177M879 177L879 180L880 180L879 177M1097.33 177.667L1097.67 178.333L1097.33 177.667M1161 177L1162 178L1161 177M1242 177L1243 178L1242 177M1269.33 177.667L1269.67 178.333L1269.33 177.667M1315 177L1316 178L1315 177M1387 177L1388 178L1387 177M1424 177L1425 178L1424 177M373 178L374 179L373 178M476 178L476 183L477 183L476 178M1069 178L1070 179L1069 178M1191 178L1192 179L1191 178M1312.67 178.333L1313.33 178.667L1312.67 178.333M1388 178L1389 179L1388 178z"/>
<path style="fill:#f48873; stroke:none;" d="M1069 179L1069 182L1070 182L1069 179z"/>
<path style="fill:#b9afad; stroke:none;" d="M1162 179L1163 180L1162 179M1425 179L1426 180L1425 179M341 180L342 181L341 180M372 180L373 181L372 180M654 180L654 184L655 184L654 180M1241 180L1242 181L1241 180M1268 180L1269 181L1268 180M1391 180L1392 181L1391 180M371 181L371 274L372 274L372 210L371 181M506 181L506 185L507 185L506 181M907 181L908 182L907 181M1192 181L1193 182L1192 181M1392 181L1393 182L1392 181M1426 181L1427 182L1426 181M342 182L342 275L371 275L371 274L343 274L343 210L342 182z"/>
<path style="fill:#f48873; stroke:none;" d="M907.333 182.667L907.667 183.333L907.333 182.667z"/>
<path style="fill:#b9afad; stroke:none;" d="M1163 182L1164 183L1163 182M1240.33 182.667L1240.67 183.333L1240.33 182.667M1267.33 182.667L1267.67 183.333L1267.33 182.667M1393 182L1394 183L1393 182z"/>
<path style="fill:#f48873; stroke:none;" d="M880 183L880 186L881 186L880 183M1096.33 183.667L1096.67 184.333L1096.33 183.667z"/>
<path style="fill:#b9afad; stroke:none;" d="M1193 183L1194 184L1193 183M1394 183L1395 184L1394 183M1427.33 183.667L1427.67 184.333L1427.33 183.667M1068 184L1069 185L1068 184M1164 184L1165 185L1164 184M1395 184L1396 185L1395 184z"/>
<path style="fill:#f48873; stroke:none;" d="M1068.33 185.667L1068.67 186.333L1068.33 185.667z"/>
<path style="fill:#b9afad; stroke:none;" d="M1096 185L1097 186L1096 185M1239 185L1240 186L1239 185M1266 185L1267 186L1266 185M683 186L683 190L684 190L683 186M880 186L881 187L880 186M908 186L909 187L908 186M1165.33 186.667L1165.67 187.333L1165.33 186.667M1194 186L1195 187L1194 186M1428.33 186.667L1428.67 187.333L1428.33 186.667M477 187L477 190L478 190L477 187M653 187L653 190L654 190L653 187z"/>
<path style="fill:#f48873; stroke:none;" d="M908.333 187.667L908.667 188.333L908.333 187.667z"/>
<path style="fill:#b9afad; stroke:none;" d="M1397 187L1398 188L1397 187M1195 188L1196 189L1195 188M1238 188L1239 189L1238 188M1265 188L1266 189L1265 188M1398 188L1399 189L1398 188M507.333 189.667L507.667 190.333L507.333 189.667z"/>
<path style="fill:#f48873; stroke:none;" d="M881.333 189.667L881.667 190.333L881.333 189.667M1067.33 189.667L1067.67 190.333L1067.33 189.667M1095.33 189.667L1095.67 190.333L1095.33 189.667z"/>
<path style="fill:#b9afad; stroke:none;" d="M1166 189L1167 190L1166 189M1429.33 189.667L1429.67 190.333L1429.33 189.667M909 190L910 191L909 190M1237.33 190.667L1237.67 191.333L1237.33 190.667M1264 190L1265 191L1264 190M1399 190L1400 191L1399 190M881 191L882 192L881 191z"/>
<path style="fill:#f48873; stroke:none;" d="M909 191L910 192L909 191z"/>
<path style="fill:#b9afad; stroke:none;" d="M1095 191L1096 192L1095 191M1167.33 191.667L1167.67 192.333L1167.33 191.667M1196 191L1197 192L1196 191M682 192L682 195L683 195L682 192M1066 192L1067 193L1066 192M1400 192L1401 193L1400 192M478.333 193.667L478.667 194.333L478.333 193.667M652.333 193.667L652.667 194.333L652.333 193.667z"/>
<path style="fill:#f48873; stroke:none;" d="M1066 193L1067 194L1066 193z"/>
<path style="fill:#b9afad; stroke:none;" d="M1197 193L1198 194L1197 193M1236 193L1237 194L1236 193M1263 193L1264 194L1263 193M1430.33 193.667L1430.67 194.333L1430.33 193.667M508.333 194.667L508.667 195.333L508.333 194.667z"/>
<path style="fill:#f48873; stroke:none;" d="M882 194L883 195L882 194M910 194L911 195L910 194M1094 194L1095 195L1094 194z"/>
<path style="fill:#b9afad; stroke:none;" d="M1168 194L1169 195L1168 194M1401.33 194.667L1401.67 195.333L1401.33 194.667M882 195L883 196L882 195M1065 195L1066 196L1065 195M1094 195L1095 196L1094 195M1262 195L1263 196L1262 195z"/>
<path style="fill:#f48873; stroke:none;" d="M1065 196L1066 197L1065 196z"/>
<path style="fill:#b9afad; stroke:none;" d="M1169.33 196.667L1169.67 197.333L1169.33 196.667M1198 196L1199 197L1198 196M1235 196L1236 197L1235 196M479.333 197.667L479.667 198.333L479.333 197.667M651.333 197.667L651.667 198.333L651.333 197.667M681.333 197.667L681.667 198.333L681.333 197.667z"/>
<path style="fill:#f48873; stroke:none;" d="M911 197L912 198L911 197z"/>
<path style="fill:#b9afad; stroke:none;" d="M1402.33 197.667L1402.67 198.333L1402.33 197.667M509.333 198.667L509.667 199.333L509.333 198.667z"/>
<path style="fill:#f48873; stroke:none;" d="M883 198L884 199L883 198z"/>
<path style="fill:#b9afad; stroke:none;" d="M1064 198L1065 199L1064 198z"/>
<path style="fill:#f48873; stroke:none;" d="M1093 198L1094 199L1093 198z"/>
<path style="fill:#b9afad; stroke:none;" d="M1199.33 198.667L1199.67 199.333L1199.33 198.667M1234.33 198.667L1234.67 199.333L1234.33 198.667M1261 198L1262 199L1261 198M1431 198L1431 201L1432 201L1431 198z"/>
<path style="fill:#f48873; stroke:none;" d="M912.333 199.667L912.667 200.333L912.333 199.667z"/>
<path style="fill:#b9afad; stroke:none;" d="M1093 199L1094 200L1093 199M1170 199L1171 200L1170 199M1260.33 200.667L1260.67 201.333L1260.33 200.667M480.333 201.667L480.667 202.333L480.333 201.667M650 201L651 202L650 201M680.333 201.667L680.667 202.333L680.333 201.667z"/>
<path style="fill:#f48873; stroke:none;" d="M884 201L885 202L884 201M1063 201L1064 202L1063 201M1092 201L1093 202L1092 201z"/>
<path style="fill:#b9afad; stroke:none;" d="M1171 201L1172 202L1171 201M1200 201L1201 202L1200 201M1233 201L1234 202L1233 201M1403 201L1403 204L1404 204L1403 201M510 202L511 203L510 202M884 202L885 203L884 202z"/>
<path style="fill:#f48873; stroke:none;" d="M913 202L914 203L913 202z"/>
<path style="fill:#b9afad; stroke:none;" d="M1092 202L1093 203L1092 202z"/>
<path style="fill:#f48873; stroke:none;" d="M1062 203L1063 204L1062 203z"/>
<path style="fill:#b9afad; stroke:none;" d="M1259 203L1260 204L1259 203M481.333 204.667L481.667 205.333L481.333 204.667M649 204L650 205L649 204z"/>
<path style="fill:#f48873; stroke:none;" d="M885 204L886 205L885 204M914 204L915 205L914 204M1091 204L1092 205L1091 204z"/>
<path style="fill:#b9afad; stroke:none;" d="M1172 204L1173 205L1172 204M1201 204L1202 205L1201 204M1232 204L1233 205L1232 204M511 205L512 206L511 205M679.333 205.667L679.667 206.333L679.333 205.667M885 205L886 206L885 205z"/>
<path style="fill:#f48873; stroke:none;" d="M1061 205L1062 206L1061 205z"/>
<path style="fill:#b9afad; stroke:none;" d="M1091 205L1092 206L1091 205M1258.33 205.667L1258.67 206.333L1258.33 205.667z"/>
<path style="fill:#f48873; stroke:none;" d="M915 206L916 207L915 206z"/>
<path style="fill:#b9afad; stroke:none;" d="M1173 206L1174 207L1173 206M1202 206L1203 207L1202 206M1231.33 206.667L1231.67 207.333L1231.33 206.667M482.333 207.667L482.667 208.333L482.333 207.667M512.333 207.667L512.667 208.333L512.333 207.667M648 207L649 208L648 207z"/>
<path style="fill:#f48873; stroke:none;" d="M886 207L887 208L886 207M1060 207L1061 208L1060 207M1090 207L1091 208L1090 207z"/>
<path style="fill:#b9afad; stroke:none;" d="M678.333 208.667L678.667 209.333L678.333 208.667z"/>
<path style="fill:#f48873; stroke:none;" d="M916 208L917 209L916 208z"/>
<path style="fill:#b9afad; stroke:none;" d="M1090 208L1091 209L1090 208M1257 208L1258 209L1257 208M1404 208L1404 219L1405 219L1404 208M1432 208L1432 216L1433 216L1432 208M647 209L648 210L647 209z"/>
<path style="fill:#f48873; stroke:none;" d="M887 209L888 210L887 209z"/>
<path style="fill:#b9afad; stroke:none;" d="M917 209L918 210L917 209z"/>
<path style="fill:#f48873; stroke:none;" d="M1059 209L1060 210L1059 209z"/>
<path style="fill:#b9afad; stroke:none;" d="M1174 209L1175 210L1174 209M1203 209L1204 210L1203 209M1230 209L1231 210L1230 209M483.333 210.667L483.667 211.333L483.333 210.667M513 210L514 211L513 210M887 210L888 211L887 210M1058 210L1059 211L1058 210z"/>
<path style="fill:#f48873; stroke:none;" d="M1089 210L1090 211L1089 210z"/>
<path style="fill:#b9afad; stroke:none;" d="M1256.33 210.667L1256.67 211.333L1256.33 210.667M646.333 211.667L646.667 212.333L646.333 211.667M677.333 211.667L677.667 212.333L677.333 211.667z"/>
<path style="fill:#f48873; stroke:none;" d="M918 211L919 212L918 211z"/>
<path style="fill:#b9afad; stroke:none;" d="M1175 211L1176 212L1175 211M1204 211L1205 212L1204 211M514 212L515 213L514 212z"/>
<path style="fill:#f48873; stroke:none;" d="M888 212L889 213L888 212M1057 212L1058 213L1057 212M1088 212L1089 213L1088 212z"/>
<path style="fill:#b9afad; stroke:none;" d="M1229 212L1230 213L1229 212M484 213L485 214L484 213z"/>
<path style="fill:#f48873; stroke:none;" d="M919 213L920 214L919 213z"/>
<path style="fill:#b9afad; stroke:none;" d="M1176.33 213.667L1176.67 214.333L1176.33 213.667M1255 213L1256 214L1255 213M515 214L516 215L515 214M645 214L646 215L645 214M676 214L677 215L676 214z"/>
<path style="fill:#f48873; stroke:none;" d="M889 214L890 215L889 214M920 214L921 215L920 214M1087 214L1088 215L1087 214z"/>
<path style="fill:#b9afad; stroke:none;" d="M1205 214L1206 215L1205 214M1228.33 214.667L1228.67 215.333L1228.33 214.667M485.333 215.667L485.667 216.333L485.333 215.667z"/>
<path style="fill:#f48873; stroke:none;" d="M1055 215L1056 216L1055 215z"/>
<path style="fill:#b9afad; stroke:none;" d="M1087 215L1088 216L1087 215M516 216L517 217L516 216M675.333 216.667L675.667 217.333L675.333 216.667z"/>
<path style="fill:#f48873; stroke:none;" d="M890 216L891 217L890 216z"/>
<path style="fill:#b9afad; stroke:none;" d="M1177 216L1178 217L1177 216M1206.33 216.667L1206.67 217.333L1206.33 216.667M1254 216L1255 217L1254 216M643 217L644 218L643 217z"/>
<path style="fill:#f48873; stroke:none;" d="M922 217L923 218L922 217z"/>
<path style="fill:#b9afad; stroke:none;" d="M1086 217L1087 218L1086 217M1227 217L1228 218L1227 217M486 218L487 219L486 218M517 218L518 219L517 218z"/>
<path style="fill:#f48873; stroke:none;" d="M891 218L892 219L891 218z"/>
<path style="fill:#b9afad; stroke:none;" d="M923 218L924 219L923 218z"/>
<path style="fill:#f48873; stroke:none;" d="M1053 218L1054 219L1053 218z"/>
<path style="fill:#b9afad; stroke:none;" d="M1253 218L1254 219L1253 218M642 219L643 220L642 219M674 219L675 220L674 219z"/>
<path style="fill:#f48873; stroke:none;" d="M1052 219L1053 220L1052 219z"/>
<path style="fill:#b9afad; stroke:none;" d="M1085 219L1086 220L1085 219M1178 219L1179 220L1178 219M1207 219L1208 220L1207 219M487 220L488 221L487 220z"/>
<path style="fill:#f48873; stroke:none;" d="M892 220L893 221L892 220z"/>
<path style="fill:#b9afad; stroke:none;" d="M1051 220L1052 221L1051 220z"/>
<path style="fill:#f48873; stroke:none;" d="M1084 220L1085 221L1084 220z"/>
<path style="fill:#b9afad; stroke:none;" d="M1226 220L1227 221L1226 220M519 221L520 222L519 221M641 221L642 222L641 221M673 221L674 222L673 221z"/>
<path style="fill:#f48873; stroke:none;" d="M925 221L926 222L925 221z"/>
<path style="fill:#b9afad; stroke:none;" d="M1179 221L1180 222L1179 221M1208.33 221.667L1208.67 222.333L1208.33 221.667M1252 221L1253 222L1252 221M488 222L489 223L488 222M640 222L641 223L640 222z"/>
<path style="fill:#f48873; stroke:none;" d="M893 222L894 223L893 222M926 222L927 223L926 222M1083 222L1084 223L1083 222z"/>
<path style="fill:#b9afad; stroke:none;" d="M1225.33 222.667L1225.67 223.333L1225.33 222.667M1431 222L1431 225L1432 225L1431 222M672 223L673 224L672 223z"/>
<path style="fill:#f48873; stroke:none;" d="M927 223L928 224L927 223z"/>
<path style="fill:#b9afad; stroke:none;" d="M1180.33 223.667L1180.67 224.333L1180.33 223.667M1251 223L1252 224L1251 223M1403.33 223.667L1403.67 224.333L1403.33 223.667M489 224L490 225L489 224M521 224L522 225L521 224M894 224L895 225L894 224z"/>
<path style="fill:#f48873; stroke:none;" d="M928 224L929 225L928 224M1048 224L1049 225L1048 224M1082 224L1083 225L1082 224z"/>
<path style="fill:#b9afad; stroke:none;" d="M1209 224L1210 225L1209 224M522 225L523 226L522 225M638 225L639 226L638 225M671 225L672 226L671 225z"/>
<path style="fill:#f48873; stroke:none;" d="M895 225L896 226L895 225M929 225L930 226L929 225M1047 225L1048 226L1047 225z"/>
<path style="fill:#b9afad; stroke:none;" d="M1224 225L1225 226L1224 225M637 226L638 227L637 226z"/>
<path style="fill:#f48873; stroke:none;" d="M930 226L931 227L930 226M1046 226L1047 227L1046 226z"/>
<path style="fill:#b9afad; stroke:none;" d="M1181 226L1182 227L1181 226M1250 226L1251 227L1250 226M670 227L671 228L670 227z"/>
<path style="fill:#f48873; stroke:none;" d="M896 227L897 228L896 227M931 227L932 228L931 227M1045 227L1046 228L1045 227M1080 227L1081 228L1080 227z"/>
<path style="fill:#b9afad; stroke:none;" d="M1210 227L1211 228L1210 227M1402.33 227.667L1402.67 228.333L1402.33 227.667M491 228L492 229L491 228M524 228L525 229L524 228z"/>
<path style="fill:#f48873; stroke:none;" d="M932 228L933 229L932 228M1044 228L1045 229L1044 228z"/>
<path style="fill:#b9afad; stroke:none;" d="M1182 228L1183 229L1182 228M1223 228L1224 229L1223 228M1249.33 228.667L1249.67 229.333L1249.33 228.667M1430.33 228.667L1430.67 229.333L1430.33 228.667M525 229L526 230L525 229M669 229L670 230L669 229z"/>
<path style="fill:#f48873; stroke:none;" d="M933 229L934 230L933 229M1043 229L1044 230L1043 229z"/>
<path style="fill:#b9afad; stroke:none;" d="M1211 229L1212 230L1211 229M1324 229L1324 230L1327 231L1324 229M492 230L493 231L492 230M526 230L527 231L526 230M634 230L635 231L634 230z"/>
<path style="fill:#f48873; stroke:none;" d="M898 230L899 231L898 230M934 230L935 231L934 230M1078 230L1079 231L1078 230z"/>
<path style="fill:#b9afad; stroke:none;" d="M1222.33 230.667L1222.67 231.333L1222.33 230.667M1322 230L1323 231L1322 230M1401.33 230.667L1401.67 231.333L1401.33 230.667M493 231L494 232L493 231M527 231L528 232L527 231M633 231L634 232L633 231z"/>
<path style="fill:#f48873; stroke:none;" d="M899 231L900 232L899 231M935 231L936 232L935 231z"/>
<path style="fill:#b9afad; stroke:none;" d="M1183 231L1184 232L1183 231M1248 231L1249 232L1248 231M1319 231L1320 232L1319 231M1327.33 231.667L1327.67 232.333L1327.33 231.667M528 232L529 233L528 232M632 232L633 233L632 232M667 232L668 233L667 232M1039 232L1040 233L1039 232M1212 232L1213 233L1212 232M1316 232L1317 233L1316 232M1429 232L1430 233L1429 232M494 233L495 234L494 233M529 233L530 234L529 233M631 233L632 234L631 233M900 233L901 234L900 233M938 233L939 234L938 233z"/>
<path style="fill:#f48873; stroke:none;" d="M1038 233L1039 234L1038 233z"/>
<path style="fill:#b9afad; stroke:none;" d="M1076 233L1077 234L1076 233M1184 233L1185 234L1184 233M1221 233L1222 234L1221 233M1247.33 233.667L1247.67 234.333L1247.33 233.667M1313 233L1314 234L1313 233M1400 233L1401 234L1400 233M530 234L531 235L530 234M630 234L631 235L630 234M666 234L667 235L666 234z"/>
<path style="fill:#f48873; stroke:none;" d="M901 234L902 235L901 234M939 234L940 235L939 234M1075 234L1076 235L1075 234z"/>
<path style="fill:#b9afad; stroke:none;" d="M1213 234L1214 235L1213 234M1310 234L1311 235L1310 234M1328 234L1329 235L1328 234M531 235L532 236L531 235M629 235L630 236L629 235M665 235L666 236L665 235z"/>
<path style="fill:#f48873; stroke:none;" d="M902 235L903 236L902 235z"/>
<path style="fill:#b9afad; stroke:none;" d="M1035 235L1036 236L1035 235M1307 235L1308 236L1307 235M1399 235L1400 236L1399 235M1428 235L1429 236L1428 235M496 236L497 237L496 236M532 236L533 237L532 236z"/>
<path style="fill:#f48873; stroke:none;" d="M942 236L943 237L942 236M1034 236L1035 237L1034 236z"/>
<path style="fill:#b9afad; stroke:none;" d="M1185 236L1186 237L1185 236M1220 236L1221 237L1220 236M1246 236L1247 237L1246 236M1304 236L1305 237L1304 236M1329 236L1330 237L1329 236M664 237L665 238L664 237M1032 237L1033 238L1032 237M1214 237L1215 238L1214 237M1301 237L1302 238L1301 237M1427.33 237.667L1427.67 238.333L1427.33 237.667M663 238L664 239L663 238M904 238L905 239L904 238z"/>
<path style="fill:#f48873; stroke:none;" d="M945 238L946 239L945 238M1031 238L1032 239L1031 238M1072 238L1073 239L1072 238z"/>
<path style="fill:#b9afad; stroke:none;" d="M1186 238L1187 239L1186 238M1219.33 238.667L1219.67 239.333L1219.33 238.667M1245.33 238.667L1245.67 239.333L1245.33 238.667M1298 238L1298 241L1299 241L1298 238M1330 238L1331 239L1330 238M1397 238L1398 239L1397 238M498 239L499 240L498 239M536 239L537 240L536 239M624 239L625 240L624 239z"/>
<path style="fill:#f48873; stroke:none;" d="M905 239L906 240L905 239z"/>
<path style="fill:#b9afad; stroke:none;" d="M947 239L948 240L947 239z"/>
<path style="fill:#f48873; stroke:none;" d="M1029 239L1030 240L1029 239M1071 239L1072 240L1071 239z"/>
<path style="fill:#b9afad; stroke:none;" d="M1215.33 239.667L1215.67 240.333L1215.33 239.667M1331 239L1332 240L1331 239M499 240L500 241L499 240M537 240L538 241L537 240M623 240L624 241L623 240z"/>
<path style="fill:#f48873; stroke:none;" d="M906 240L907 241L906 240M1027 240L1028 241L1027 240M1070 240L1071 241L1070 240z"/>
<path style="fill:#b9afad; stroke:none;" d="M1426 240L1427 241L1426 240M500 241L501 242L500 241M539 241L540 242L539 241M621 241L622 242L621 241M661 241L662 242L661 241z"/>
<path style="fill:#f48873; stroke:none;" d="M907 241L908 242L907 241M950 241L951 242L950 241z"/>
<path style="fill:#b9afad; stroke:none;" d="M1025 241L1026 242L1025 241z"/>
<path style="fill:#f48873; stroke:none;" d="M1069 241L1070 242L1069 241z"/>
<path style="fill:#b9afad; stroke:none;" d="M1187 241L1188 242L1187 241M1218 241L1219 242L1218 241M1244 241L1245 242L1244 241M1332 241L1333 242L1332 241M1395 241L1396 242L1395 241M540 242L541 243L540 242M620 242L621 243L620 242M660 242L661 243L660 242z"/>
<path style="fill:#f48873; stroke:none;" d="M952 242L953 243L952 242z"/>
<path style="fill:#b9afad; stroke:none;" d="M1023 242L1024 243L1023 242M1216 242L1217 243L1216 242M1299 242L1300 243L1299 242M1333 242L1334 243L1333 242M1394 242L1395 243L1394 242M1425 242L1426 243L1425 242M542 243L543 244L542 243M618 243L619 244L618 243M659 243L660 244L659 243z"/>
<path style="fill:#f48873; stroke:none;" d="M954 243L955 244L954 243z"/>
<path style="fill:#b9afad; stroke:none;" d="M955 243L956 244L955 243z"/>
<path style="fill:#f48873; stroke:none;" d="M1021 243L1022 244L1021 243z"/>
<path style="fill:#b9afad; stroke:none;" d="M1188 243L1189 244L1188 243M1217 243L1218 244L1217 243M1334 243L1335 244L1334 243M502 244L503 245L502 244M617 244L618 245L617 244M957 244L958 245L957 244z"/>
<path style="fill:#f48873; stroke:none;" d="M1019 244L1020 245L1019 244z"/>
<path style="fill:#b9afad; stroke:none;" d="M1243 244L1244 245L1243 244M1300 244L1301 245L1300 244M1424 244L1425 245L1424 244M503 245L504 246L503 245M545 245L546 246L545 245M615 245L616 246L615 245z"/>
<path style="fill:#f48873; stroke:none;" d="M959 245L960 246L959 245z"/>
<path style="fill:#b9afad; stroke:none;" d="M960 245L961 246L960 245M1016 245L1017 246L1016 245z"/>
<path style="fill:#f48873; stroke:none;" d="M1017 245L1018 246L1017 245z"/>
<path style="fill:#b9afad; stroke:none;" d="M1189.33 245.667L1189.67 246.333L1189.33 245.667M504 246L505 247L504 246M547 246L548 247L547 246M613 246L614 247L613 246z"/>
<path style="fill:#f48873; stroke:none;" d="M962 246L963 247L962 246z"/>
<path style="fill:#b9afad; stroke:none;" d="M963 246L964 247L963 246M1013 246L1014 247L1013 246z"/>
<path style="fill:#f48873; stroke:none;" d="M1014 246L1015 247L1014 246z"/>
<path style="fill:#b9afad; stroke:none;" d="M1242 246L1243 247L1242 246M1301 246L1302 247L1301 246M1390 246L1391 247L1390 246M1423 246L1424 247L1423 246M505 247L506 248L505 247M549 247L550 248L549 247M611 247L612 248L611 247z"/>
<path style="fill:#f48873; stroke:none;" d="M965 247L966 248L965 247z"/>
<path style="fill:#b9afad; stroke:none;" d="M966 247L967 248L966 247z"/>
<path style="fill:#f48873; stroke:none;" d="M1010.67 247.333L1011.33 247.667L1010.67 247.333z"/>
<path style="fill:#b9afad; stroke:none;" d="M1389 247L1390 248L1389 247M506 248L507 249L506 248M552 248L553 249L552 248M608 248L609 249L608 248M655 248L656 249L655 248z"/>
<path style="fill:#f48873; stroke:none;" d="M914 248L915 249L914 248M969 248L970 249L969 248z"/>
<path style="fill:#b9afad; stroke:none;" d="M970 248L971 249L970 248M1006 248L1007 249L1006 248z"/>
<path style="fill:#f48873; stroke:none;" d="M1007 248L1008 249L1007 248z"/>
<path style="fill:#b9afad; stroke:none;" d="M1190 248L1191 249L1190 248M1302 248L1303 249L1302 248M1339 248L1340 249L1339 248M1388 248L1389 249L1388 248M507 249L508 250L507 249M554.667 249.333L555.333 249.667L554.667 249.333M606 249L607 250L606 249M654 249L655 250L654 249z"/>
<path style="fill:#f48873; stroke:none;" d="M915 249L916 250L915 249M973 249L973 250L976 250L973 249z"/>
<path style="fill:#b9afad; stroke:none;" d="M976 249L977 250L976 249M1000 249L1001 250L1000 249z"/>
<path style="fill:#f48873; stroke:none;" d="M1001.67 249.333L1002.33 249.667L1001.67 249.333M1061 249L1062 250L1061 249z"/>
<path style="fill:#b9afad; stroke:none;" d="M1241 249L1242 250L1241 249M1340 249L1341 250L1340 249M1386 249L1387 250L1386 249M1421 249L1422 250L1421 249M508 250L509 251L508 250M557.667 250.333L558.333 250.667L557.667 250.333M602.667 250.333L603.333 250.667L602.667 250.333M653 250L654 251L653 250z"/>
<path style="fill:#f48873; stroke:none;" d="M916 250L917 251L916 250M980 250L980 251L996 251L980 250M1060 250L1061 251L1060 250z"/>
<path style="fill:#b9afad; stroke:none;" d="M1191.33 250.667L1191.67 251.333L1191.33 250.667M1303 250L1304 251L1303 250M1342 250L1343 251L1342 250M1385 250L1386 251L1385 250M509 251L510 252L509 251M561.667 251.333L562.333 251.667L561.667 251.333M598.667 251.333L599.333 251.667L598.667 251.333z"/>
<path style="fill:#f48873; stroke:none;" d="M917 251L918 252L917 251M1059 251L1060 252L1059 251z"/>
<path style="fill:#b9afad; stroke:none;" d="M1240 251L1241 252L1240 251M1344 251L1345 252L1344 251M1383 251L1384 252L1383 251M510 252L511 253L510 252M565 252L565 253L568 253L565 252M593 252L593 253L596 253L593 252z"/>
<path style="fill:#f48873; stroke:none;" d="M918 252L919 253L918 252z"/>
<path style="fill:#b9afad; stroke:none;" d="M1058 252L1059 253L1058 252M1346 252L1347 253L1346 252M1380.67 252.333L1381.33 252.667L1380.67 252.333M1419 252L1420 253L1419 252M511 253L512 254L511 253M572 253L572 254L589 254L572 253M1192 253L1193 254L1192 253M1305 253L1306 254L1305 253M1348 253L1349 254L1348 253M1378 253L1379 254L1378 253M1418 253L1419 254L1418 253z"/>
<path style="fill:#f48873; stroke:none;" d="M921 254L922 255L921 254z"/>
<path style="fill:#b9afad; stroke:none;" d="M1239 254L1240 255L1239 254M1351.67 254.333L1352.33 254.667L1351.67 254.333M1374.67 254.333L1375.33 254.667L1374.67 254.333M647 255L648 256L647 255z"/>
<path style="fill:#f48873; stroke:none;" d="M922 255L923 256L922 255M1054 255L1055 256L1054 255z"/>
<path style="fill:#b9afad; stroke:none;" d="M1193 255L1194 256L1193 255M1356 255L1356 256L1360 256L1356 255M1366 255L1367 256L1366 255M1368 255L1368 256L1372 256L1368 255M515 256L516 257L515 256M646 256L647 257L646 256M923 256L924 257L923 256M1053 256L1054 257L1053 256M1238.33 256.667L1238.67 257.333L1238.33 256.667M1307 256L1308 257L1307 256M516 257L517 258L516 257z"/>
<path style="fill:#f48873; stroke:none;" d="M925 257L926 258L925 257z"/>
<path style="fill:#b9afad; stroke:none;" d="M1308 257L1309 258L1308 257M1415 257L1416 258L1415 257M643 258L644 259L643 258z"/>
<path style="fill:#f48873; stroke:none;" d="M926 258L927 259L926 258M1050 258L1051 259L1050 258z"/>
<path style="fill:#b9afad; stroke:none;" d="M1194 258L1195 259L1194 258M1309 258L1310 259L1309 258M1414 258L1415 259L1414 258M519 259L520 260L519 259M642 259L643 260L642 259M1237 259L1238 260L1237 259M1413 259L1414 260L1413 259M520 260L521 261L520 260z"/>
<path style="fill:#f48873; stroke:none;" d="M929 260L930 261L929 260M1047 260L1048 261L1047 260z"/>
<path style="fill:#b9afad; stroke:none;" d="M1195 260L1196 261L1195 260M1412 260L1413 261L1412 260M522 261L523 262L522 261M639 261L640 262L639 261z"/>
<path style="fill:#f48873; stroke:none;" d="M931 261L932 262L931 261M1045 261L1046 262L1045 261z"/>
<path style="fill:#b9afad; stroke:none;" d="M1236.33 261.667L1236.67 262.333L1236.33 261.667M1411 261L1412 262L1411 261M523 262L524 263L523 262M637 262L638 263L637 262M932 262L933 263L932 262M1044 262L1045 263L1044 262M525 263L526 264L525 263M636 263L637 264L636 263z"/>
<path style="fill:#f48873; stroke:none;" d="M934 263L935 264L934 263M1042 263L1043 264L1042 263z"/>
<path style="fill:#b9afad; stroke:none;" d="M1196 263L1197 264L1196 263M634 264L635 265L634 264z"/>
<path style="fill:#f48873; stroke:none;" d="M936 264L937 265L936 264M1040 264L1041 265L1040 264z"/>
<path style="fill:#b9afad; stroke:none;" d="M1235 264L1236 265L1235 264M1315 264L1316 265L1315 264M1407 264L1408 265L1407 264M528 265L529 266L528 265M632 265L633 266L632 265z"/>
<path style="fill:#f48873; stroke:none;" d="M938 265L939 266L938 265M1038 265L1039 266L1038 265z"/>
<path style="fill:#b9afad; stroke:none;" d="M1197 265L1198 266L1197 265M1316 265L1317 266L1316 265M1406 265L1407 266L1406 265M530 266L531 267L530 266M630 266L631 267L630 266z"/>
<path style="fill:#f48873; stroke:none;" d="M940 266L941 267L940 266M1036 266L1037 267L1036 266z"/>
<path style="fill:#b9afad; stroke:none;" d="M1234.33 266.667L1234.67 267.333L1234.33 266.667M532 267L533 268L532 267M628 267L629 268L628 267z"/>
<path style="fill:#f48873; stroke:none;" d="M942 267L943 268L942 267M1034 267L1035 268L1034 267z"/>
<path style="fill:#b9afad; stroke:none;" d="M1319 267L1320 268L1319 267M1403 267L1404 268L1403 267M534 268L535 269L534 268M626 268L627 269L626 268z"/>
<path style="fill:#f48873; stroke:none;" d="M944 268L945 269L944 268M1032 268L1033 269L1032 268z"/>
<path style="fill:#b9afad; stroke:none;" d="M1198 268L1199 269L1198 268M1320 268L1321 269L1320 268M1402 268L1403 269L1402 268M536 269L537 270L536 269M624 269L625 270L624 269M946 269L947 270L946 269z"/>
<path style="fill:#f48873; stroke:none;" d="M1029.67 269.333L1030.33 269.667L1029.67 269.333z"/>
<path style="fill:#b9afad; stroke:none;" d="M1233 269L1234 270L1233 269M1400 269L1401 270L1400 269M539 270L540 271L539 270z"/>
<path style="fill:#f48873; stroke:none;" d="M949 270L950 271L949 270M1027 270L1028 271L1027 270z"/>
<path style="fill:#b9afad; stroke:none;" d="M1199.33 270.667L1199.67 271.333L1199.33 270.667M1323 270L1324 271L1323 270M1398 270L1399 271L1398 270M541 271L542 272L541 271M619 271L620 272L619 271M858 271L859 272L858 271M951 271L952 272L951 271z"/>
<path style="fill:#f48873; stroke:none;" d="M952 271L953 272L952 271M1024 271L1025 272L1024 271z"/>
<path style="fill:#b9afad; stroke:none;" d="M1025 271L1026 272L1025 271M1325 271L1326 272L1325 271M1397 271L1398 272L1397 271M544 272L545 273L544 272M616 272L617 273L616 272M954 272L955 273L954 272z"/>
<path style="fill:#f48873; stroke:none;" d="M955 272L956 273L955 272M1021 272L1022 273L1021 272z"/>
<path style="fill:#b9afad; stroke:none;" d="M1022 272L1023 273L1022 272M1200.33 272.667L1200.67 273.333L1200.33 272.667M1232 272L1233 273L1232 272M1327 272L1328 273L1327 272M1395 272L1396 273L1395 272M547 273L548 274L547 273M613 273L614 274L613 273M957 273L958 274L957 273z"/>
<path style="fill:#f48873; stroke:none;" d="M958 273L959 274L958 273M1018 273L1019 274L1018 273z"/>
<path style="fill:#b9afad; stroke:none;" d="M1329 273L1330 274L1329 273M1393 273L1394 274L1393 273M550.667 274.333L551.333 274.667L550.667 274.333M609.667 274.333L610.333 274.667L609.667 274.333M961 274L962 275L961 274z"/>
<path style="fill:#f48873; stroke:none;" d="M962 274L963 275L962 274M1014 274L1015 275L1014 274z"/>
<path style="fill:#b9afad; stroke:none;" d="M1015 274L1016 275L1015 274M1231 274L1232 275L1231 274M1331 274L1332 275L1331 274M1390 274L1391 275L1390 274M554.667 275.333L555.333 275.667L554.667 275.333M605.667 275.333L606.333 275.667L605.667 275.333M965 275L966 276L965 275z"/>
<path style="fill:#f48873; stroke:none;" d="M966.667 275.333L967.333 275.667L966.667 275.333M1009.67 275.333L1010.33 275.667L1009.67 275.333z"/>
<path style="fill:#b9afad; stroke:none;" d="M1011 275L1012 276L1011 275M1201 275L1202 276L1201 275M1333.67 275.333L1334.33 275.667L1333.67 275.333M1388 275L1389 276L1388 275M558 276L558 277L561 277L558 276M600 276L600 277L603 277L600 276M971 276L972 277L971 276z"/>
<path style="fill:#f48873; stroke:none;" d="M972 276L972 277L975 277L972 276M1003.67 276.333L1004.33 276.667L1003.67 276.333z"/>
<path style="fill:#b9afad; stroke:none;" d="M1005 276L1006 277L1005 276M1203 276L1203 277L1231 277L1203 276M1336 276L1337 277L1336 276M1385 276L1386 277L1385 276M564 277L564 278L568 278L564 277M593 277L593 278L597 278L593 277M978.667 277.333L979.333 277.667L978.667 277.333z"/>
<path style="fill:#f48873; stroke:none;" d="M980 277L980 278L997 278L980 277z"/>
<path style="fill:#b9afad; stroke:none;" d="M997.667 277.333L998.333 277.667L997.667 277.333M1339.67 277.333L1340.33 277.667L1339.67 277.333M1381.67 277.333L1382.33 277.667L1381.67 277.333M575 278L575 279L586 279L575 278M1343.67 278.333L1344.33 278.667L1343.67 278.333M1377.67 278.333L1378.33 278.667L1377.67 278.333M1348 279L1348 280L1351 280L1348 279M1370 279L1370 280L1374 280L1370 279z"/>
</svg>
